<?xml version="1.0" encoding="iso-8859-1"?>
<!-- Generator: Adobe Illustrator 16.0.3, SVG Export Plug-In . SVG Version: 6.00 Build 0)  -->
<!DOCTYPE svg PUBLIC "-//W3C//DTD SVG 1.1//EN" "http://www.w3.org/Graphics/SVG/1.1/DTD/svg11.dtd">
<svg version="1.1" id="Layer_1" xmlns="http://www.w3.org/2000/svg" xmlns:xlink="http://www.w3.org/1999/xlink" x="0px" y="0px"
	 width="45.897px" height="33.633px" viewBox="0 0 45.897 33.633" style="enable-background:new 0 0 45.897 33.633;"
	 xml:space="preserve">
<path style="fill-rule:evenodd;clip-rule:evenodd;fill:#363636;" d="M45.03,11.447h-2.81l-4.356,21.488
	c-0.087,0.408-0.439,0.698-0.846,0.698H8.995c-0.402,0-0.75-0.283-0.843-0.684L3.458,11.447H0.867C0.388,11.447,0,11.049,0,10.558
	c0-0.491,0.388-0.888,0.867-0.888h10.35l8.623-9.39c0.328-0.357,0.876-0.375,1.225-0.037c0.349,0.336,0.365,0.898,0.036,1.256
	l-7.504,8.171h19.229l-7.504-8.171c-0.329-0.358-0.313-0.92,0.037-1.256c0.349-0.338,0.896-0.32,1.224,0.037l8.623,9.39h9.826
	c0.479,0,0.867,0.397,0.867,0.888C45.897,11.049,45.51,11.447,45.03,11.447z M5.233,11.447L9.68,31.855h26.641l4.129-20.409H5.233z
	 M32.504,27.472c-0.478,0.002-0.866-0.396-0.867-0.887l-0.022-10.616c-0.001-0.491,0.385-0.889,0.865-0.889
	c0.479-0.002,0.867,0.396,0.868,0.887l0.022,10.616c0,0.255-0.104,0.485-0.271,0.647C32.943,27.38,32.734,27.472,32.504,27.472z
	 M26.438,27.472c-0.479,0.002-0.867-0.396-0.868-0.887l-0.021-10.616c-0.001-0.491,0.385-0.889,0.865-0.889
	c0.479-0.002,0.867,0.396,0.867,0.887l0.022,10.616c0.001,0.255-0.104,0.485-0.271,0.647C26.877,27.38,26.669,27.472,26.438,27.472z
	 M20.373,27.472c-0.478,0.002-0.866-0.396-0.867-0.887l-0.022-10.616c-0.001-0.491,0.386-0.889,0.865-0.889
	c0.479-0.002,0.867,0.396,0.868,0.887l0.022,10.616c0,0.255-0.104,0.485-0.271,0.647C20.812,27.38,20.603,27.472,20.373,27.472z
	 M14.307,27.472c-0.479,0.002-0.867-0.396-0.867-0.887l-0.022-10.616c-0.001-0.491,0.385-0.889,0.865-0.889
	c0.479-0.002,0.867,0.396,0.867,0.887l0.022,10.616c0.001,0.255-0.104,0.485-0.271,0.647C14.746,27.38,14.538,27.472,14.307,27.472z
	"/>
</svg>
