<?xml version="1.0" encoding="iso-8859-1"?>
<!-- Generator: Adobe Illustrator 16.0.3, SVG Export Plug-In . SVG Version: 6.00 Build 0)  -->
<!DOCTYPE svg PUBLIC "-//W3C//DTD SVG 1.1//EN" "http://www.w3.org/Graphics/SVG/1.1/DTD/svg11.dtd">
<svg version="1.1" id="Layer_1" xmlns="http://www.w3.org/2000/svg" xmlns:xlink="http://www.w3.org/1999/xlink" x="0px" y="0px"
	 width="97px" height="49px" viewBox="0 0 97 49" style="enable-background:new 0 0 97 49;" xml:space="preserve">
<path style="fill-rule:evenodd;clip-rule:evenodd;fill:#FFFFFF;" d="M88.418,38.774V23.566c0-2.792-1.363-4.438-3.584-4.438
	c-3.685,0-4.038,2.792-4.038,6.981v12.665h-8.582V24.065c0-3.042-0.909-4.937-3.231-4.937c-3.079,0-4.392,1.746-4.392,7.031v12.615
	h-8.582V12.896h8.329v3.54h0.101c1.565-2.593,4.341-4.288,7.521-4.288c3.281,0,6.209,1.047,7.622,4.188
	c2.07-2.743,4.645-4.188,8.178-4.188c8.329,0,9.238,6.233,9.238,11.169v15.458H88.418z M78.884,9.484h-0.03
	c-0.448,0.869-1.417,1.237-2.386,1.237c-2.43,0-3.608-1.782-3.608-4.064c0-2.754,1.655-3.961,3.34-3.961
	c0.969,0,2.042,0.354,2.564,1.193h0.029V0h1.7v10.515h-1.61V9.484z M76.722,4.021c-1.595,0-2.162,1.399-2.162,2.769
	c0,1.311,0.656,2.607,2.132,2.607c1.521,0,2.162-1.37,2.162-2.695C78.854,5.022,78.034,4.021,76.722,4.021z M69.744,5.729
	c-0.03-1.193-0.507-1.708-1.506-1.708c-1.133,0-1.864,0.884-1.864,2.003v4.492h-1.7V2.901h1.61v1.119l0.03,0.029
	c0.507-0.839,1.387-1.354,2.4-1.354c1.67,0,2.729,0.883,2.729,2.592v5.228h-1.7V5.729z M61.275,9.793
	c-0.671,0.648-1.759,0.928-2.669,0.928c-1.386,0-2.639-0.736-2.639-2.224c0-1.9,1.536-2.209,2.967-2.371
	c1.223-0.221,2.311-0.088,2.311-1.075c0-0.869-0.91-1.031-1.595-1.031c-0.954,0-1.625,0.383-1.7,1.208h-1.7
	c0.119-1.958,1.804-2.533,3.504-2.533c1.506,0,3.086,0.604,3.086,2.209v3.917c0,0.412,0.089,0.574,0.403,0.574
	c0.104,0,0.238,0,0.417-0.029v1.163c-0.253,0.088-0.791,0.191-1.074,0.191C61.902,10.721,61.41,10.486,61.275,9.793z M61.141,6.701
	c-0.522,0.339-1.342,0.324-2.087,0.457c-0.731,0.118-1.387,0.383-1.387,1.267c0,0.751,0.969,0.972,1.565,0.972
	c0.746,0,1.908-0.383,1.908-1.443V6.701z M41.788,12.848h-0.134L31.56,48.875h-9.556L11.911,12.848h-0.135v36.026H0V1.416h18.438
	l8.277,31.639h0.135l8.277-31.639h18.438v47.459H41.788V12.848z M63.093,45.016c0,2.486-1.43,3.825-3.765,3.825h-3.302v-7.586h3.302
	C61.684,41.254,63.093,42.667,63.093,45.016z M58.027,42.955v4.186h0.947c1.517-0.032,2.119-0.616,2.119-2.136
	c0-1.381-0.753-2.05-2.119-2.05H58.027z M66.191,48.841h-2v-7.586h2V48.841z M74.183,43.39c0,0.818-0.398,1.594-1.205,1.902v0.021
	c0.817,0.191,1.054,1.095,1.119,1.817c0.021,0.319,0.054,1.435,0.323,1.711H72.44c-0.172-0.255-0.205-0.999-0.226-1.211
	c-0.054-0.765-0.183-1.551-1.119-1.551h-1.517v2.763h-2v-7.586h3.915C72.849,41.254,74.183,41.86,74.183,43.39z M69.579,42.838v1.71
	h1.678c0.603,0,0.925-0.319,0.925-0.893c0-0.563-0.452-0.818-1.011-0.818H69.579z M81.465,42.838h-4.12v1.328h3.765v1.53h-3.765
	v1.445h4.227v1.7h-6.228v-7.586h6.12V42.838z M86.306,41.095c1.656,0,3.453,1.041,3.506,2.869h-2
	c-0.108-0.765-0.71-1.168-1.549-1.168c-1.291,0-1.786,1.126-1.786,2.252c0,1.126,0.495,2.252,1.786,2.252
	c0.936,0,1.474-0.531,1.549-1.402h2C89.705,47.853,88.252,49,86.306,49c-2.323,0-3.83-1.753-3.83-3.952
	C82.476,42.848,83.982,41.095,86.306,41.095z M96.965,42.955h-2.291v5.886h-2v-5.886h-2.291v-1.7h6.583V42.955z"/>
</svg>
