<?xml version="1.0" encoding="utf-8"?>
<!-- Generator: Adobe Illustrator 21.0.2, SVG Export Plug-In . SVG Version: 6.00 Build 0)  -->
<svg version="1.1" id="Layer_1" xmlns="http://www.w3.org/2000/svg" xmlns:xlink="http://www.w3.org/1999/xlink" x="0px" y="0px"
	 width="16px" height="16px" viewBox="0 0 16 16" style="enable-background:new 0 0 16 16;" xml:space="preserve">
<style type="text/css">
	.st0{fill:#444545;}
</style>
<path class="st0" d="M14.7,8.9C14.7,8.9,14.7,8.9,14.7,8.9L14.7,8.9C14.6,8.9,14.6,9,14.7,8.9c-1.1,1.1-5.8,5.5-5.9,5.7
	c-0.2,0.2-0.5,0.3-0.7,0.3c-0.3,0-0.5-0.1-0.7-0.3L1.4,9l0,0l0,0c0,0,0,0,0,0C0.4,8,0,6.9,0,5.7C0,3.1,2.1,1,4.7,1
	C5.9,1,7.1,1.5,8,2.4C8.9,1.5,10.1,1,11.3,1C13.9,1,16,3.1,16,5.7C16,6.9,15.5,8,14.7,8.9z M11.3,1.7C9.9,1.7,8.7,2.5,8,3.6
	C7.3,2.5,6.1,1.7,4.7,1.7c-2.2,0-3.9,1.8-3.9,3.9c0,1.1,0.4,2,1.1,2.7c0,0,0,0,0,0l0,0c0,0,0,0,0,0l5.9,5.6c0.1,0.1,0.1,0.1,0.2,0.1
	c0.1,0,0.2,0,0.2-0.1c0,0,4.8-4.6,5.9-5.6c0,0,0,0,0,0c0,0,0,0,0,0c0,0,0,0,0,0c0.7-0.7,1.1-1.7,1.1-2.8C15.3,3.5,13.5,1.7,11.3,1.7
	z"/>
</svg>