<svg xmlns="http://www.w3.org/2000/svg" width="146" height="22.3" x="0" y="0" viewBox="0 0 146 22.3">
  <style>
    .st0{fill:#383535}.st1{fill:#ffd41c}
  </style>
  <path class="st0" d="M16.7 8.9c-.8 0-1.2-.7-1.2-2s.4-2 1.2-2 1.2.7 1.2 2-.4 2-1.2 2m0 1.2c1.5 0 2.4-1.3 2.4-3.1s-.9-3.1-2.4-3.1-2.4 1.3-2.4 3.1.9 3.1 2.4 3.1M9.8 10h4V8.8h-2.2l1.2-1.2c.6-.6 1-1.2 1-1.9 0-1.2-.9-1.9-2-1.9-.8 0-1.6.4-2 1.3l1 .6c.2-.4.5-.7 1-.7s.8.3.8.8c0 .4-.3.8-.7 1.2l-2 2.1v.9zM7.1 8.9c-.8 0-1.2-.7-1.2-2s.4-2 1.2-2 1.2.7 1.2 2-.4 2-1.2 2m0 1.2c1.5 0 2.4-1.3 2.4-3.1s-.9-3.1-2.4-3.1C5.5 3.9 4.7 5.1 4.7 7s.8 3.1 2.4 3.1M.2 10h4V8.8H1.9l1.2-1.2c.6-.6 1-1.2 1-1.9 0-1.2-.9-1.9-2-1.9-.8 0-1.6.4-2 1.3l1 .6c.2-.4.5-.7 1-.7s.8.3.8.8c0 .4-.3.8-.7 1.2l-2 2.1v.9z"/>
  <g id="Group_4" transform="translate(20.15 29.513)">
    <path id="Path_1" class="st0" d="M123.1-9.5c-.8 0-1.5-.6-1.5-1.4 0-.8.6-1.5 1.4-1.5.8 0 1.5.6 1.5 1.4 0 .8-.5 1.4-1.3 1.4 0 .1-.1.1-.1.1m1.4-6v2.6c-.4-.5-1-.8-1.7-.7-1.5.1-2.6 1.5-2.5 2.9.1 1.3 1.2 2.3 2.5 2.5.6 0 1.3-.2 1.7-.7v.6h1.3v-7.2h-1.3zm-5.9 2.9v-.9h-1.3v5.1h1.3v-2.4c0-.7.5-1.3 1.2-1.3h.3v-1.5c-.6 0-1.2.4-1.5 1m-5.2 3.1c-.8 0-1.5-.6-1.5-1.4s.6-1.5 1.4-1.5c.8 0 1.5.6 1.5 1.4 0 .8-.5 1.4-1.3 1.4 0 .1 0 .1-.1.1m1.5-4v.6c-.4-.5-1-.8-1.7-.7-1.5.1-2.6 1.5-2.5 2.9.1 1.3 1.2 2.3 2.5 2.5.6 0 1.3-.2 1.7-.7v.6h1.3v-5.1l-1.3-.1zm-5.7 0l-.9 3.1-.9-3.1h-1.3l-.9 3.1-.9-3.1h-1.4l1.6 5.1h1.3l.9-3.1.9 3.1h1.3l1.6-5.1h-1.3zM98.7-11l1-2.9 1 2.9h-2zm2.8 2.6h1.5l-2.5-7.2h-1.7l-2.5 7.2h1.5l.4-1.3h2.9l.4 1.3zm-11.8-3c.1-.6.7-1.1 1.3-1 .6 0 1.2.4 1.3 1h-2.6zm0 1h3.9c0-.2.1-.4.1-.5 0-1.5-1.1-2.7-2.6-2.7s-2.7 1.1-2.7 2.6v.1c0 1.5 1.1 2.7 2.6 2.7h.2c.9 0 1.7-.4 2.2-1.1l-1.1-.6c-.3.3-.7.5-1.1.5-.7.1-1.3-.4-1.5-1m-3.9 2.2c1 0 1.8-.5 2.3-1.3l-1.1-.7c-.2.4-.7.7-1.2.7-.8-.1-1.4-.7-1.3-1.5 0-.7.6-1.3 1.3-1.3.5 0 .9.3 1.2.7l1.1-.7c-.5-.8-1.3-1.3-2.3-1.3-1.5 0-2.7 1.2-2.7 2.7s1.2 2.7 2.7 2.7m-4.9-.2h1.3v-5.1h-1.3v5.1zm.7-5.7c.4 0 .8-.4.8-.8s-.3-.8-.8-.8c-.4 0-.8.3-.8.8v.1c0 .3.3.7.8.7m-2.7.6l-1.2 3.6-1.2-3.6H75l1.9 5.1h1.5l1.9-5.1h-1.4zm-5.6.9v-.9H72v5.1h1.3v-2.4c0-.7.5-1.3 1.2-1.3h.3v-1.5c-.6 0-1.2.4-1.5 1m-6 1.2c.1-.6.7-1.1 1.3-1 .6 0 1.2.4 1.3 1h-2.6zm0 1h3.9c0-.2.1-.4.1-.5 0-1.5-1.1-2.7-2.6-2.7S66-12.5 66-11v.1c0 1.5 1.1 2.7 2.6 2.7h.2c.9 0 1.7-.4 2.2-1.1l-1.1-.6c-.3.3-.7.5-1.1.5-.7.1-1.3-.4-1.5-1m-4.6 2.2c1.5 0 2.6-.8 2.6-2.2 0-1.5-1.2-1.8-2.3-2.2-1.1-.3-1.4-.6-1.4-1s.3-.7.9-.7c.6 0 1.2.4 1.4.9l1.2-.7c-.5-1-1.5-1.6-2.6-1.6-1.2-.1-2.3.8-2.3 2v.1c0 1.4 1.1 1.8 2.2 2.1 1.1.3 1.5.5 1.5 1 0 .4-.3.8-1.1.8-.7.1-1.4-.4-1.6-1.1l-1.3.8c.4 1.1 1.5 1.9 2.8 1.8m-8.8-1.3c-.8 0-1.5-.6-1.5-1.4 0-.8.6-1.5 1.4-1.5.8 0 1.5.6 1.5 1.4 0 .8-.5 1.4-1.3 1.4l-.1.1m1.4-6v2.6c-.4-.5-1-.8-1.7-.7-1.5.1-2.6 1.5-2.5 2.9.1 1.3 1.2 2.3 2.5 2.5.6 0 1.3-.2 1.7-.7v.6h1.3v-7.2h-1.3zm-8.6 4.1c.1-.6.7-1.1 1.3-1 .6 0 1.2.4 1.3 1h-2.6zm0 1h3.9c0-.2.1-.4.1-.5 0-1.5-1.1-2.7-2.6-2.7s-2.7 1.1-2.7 2.6v.1c0 1.5 1.1 2.7 2.6 2.7h.2c.9 0 1.7-.4 2.2-1.1l-1.1-.6c-.3.3-.7.5-1.1.5-.7.1-1.3-.4-1.5-1m-1.8-1.8v-1.3h-1.2v-1.4l-1.3.4v1h-.9v1.3h.9v2.1c0 1.4.6 1.9 2.5 1.7v-1.2c-.8 0-1.2 0-1.2-.5v-2.1h1.2zm-6.1.2c0-.3.3-.4.6-.4.4 0 .7.2.8.5l1.1-.6c-.4-.7-1.1-1.1-1.9-1.1-.9-.1-1.8.5-1.9 1.5v.1c0 1.8 2.6 1.4 2.6 2.1 0 .3-.3.4-.7.4-.4 0-.9-.2-1-.7l-1.1.6c.4.8 1.3 1.3 2.1 1.2 1.1 0 2.1-.5 2.1-1.6-.1-1.7-2.7-1.3-2.7-2m-3.6-1.5v2.8c0 .9-.5 1.3-1.1 1.3-.5 0-1-.4-1-.9v-3.2h-1.3v3.1c-.1 1.1.6 2 1.7 2.1h.2c.6 0 1.2-.2 1.5-.7v.6h1.3v-5.1h-1.3zm-5.6.9v-.9h-1.3v5.1h1.3v-2.4c0-.7.5-1.3 1.2-1.3h.3v-1.5c-.6 0-1.3.4-1.5 1m-1.3-2.9H23v1.4h1.9v5.8h1.4v-5.8h1.9l.1-1.4z"/>
  </g>
  <g id="Group_5" transform="translate(42.97 15.945)">
    <path id="Path_6" class="st1" d="M-9.3-12c-.1-.5-.9-.4-1.3-.5l-2.4-.3c-.3-.7-.7-1.3-1-2-.2-.4-.3-1.2-.9-1.1s-.7.8-.9 1.2c-.3.7-.6 1.3-1 2l-2.3.4c-.4.1-1.1 0-1.2.5-.1.4.6.8.8 1l1.6 1.4c-.2.7-.3 1.7-.5 2.4-.1.3-.4 1.1 0 1.3.4.3 1-.3 1.3-.5.7-.5 1.4-.9 2.2-1.2.7.4 1.4.9 2.1 1.2.3.2 1 .7 1.4.4.3-.3 0-.9-.1-1.2-.2-.7-.4-1.6-.6-2.4.6-.5 1.2-1.1 1.8-1.6.4-.2 1.1-.6 1-1"/>
    <path id="Path_7" class="st1" d="M4.5-12c-.1-.5-.9-.4-1.3-.5l-2.4-.3c-.3-.7-.7-1.3-1-2-.1-.4-.3-1.2-.8-1.1s-.7.8-.9 1.2c-.3.7-.6 1.3-1 2l-2.3.4c-.4.1-1.1 0-1.2.5-.1.4.6.8.8 1L-4-9.3c-.2.7-.3 1.7-.5 2.4-.1.3-.4 1.1 0 1.3.4.3 1-.3 1.3-.5.8-.5 1.5-.9 2.3-1.2.7.3 1.4.9 2.1 1.2.3.2 1 .7 1.4.4.3-.3 0-.9-.1-1.2-.2-.8-.4-1.7-.6-2.4.6-.5 1.2-1.1 1.8-1.6.2-.3.9-.7.8-1.1"/>
    <path id="Path_8" class="st1" d="M18.2-12c-.1-.5-.9-.4-1.3-.5l-2.4-.3c-.3-.7-.7-1.3-1-2-.2-.4-.3-1.2-.9-1.1s-.7.8-.9 1.2c-.3.7-.6 1.3-1 2l-2.3.4c-.4.1-1.1 0-1.2.5-.1.4.6.8.8 1l1.6 1.4c.1.8-.1 1.7-.3 2.5-.1.3-.4 1.1 0 1.3.4.3 1-.3 1.3-.5.7-.5 1.4-.9 2.2-1.2.7.4 1.4.9 2.1 1.2.3.2 1 .7 1.4.4.3-.3 0-.9-.1-1.2-.2-.7-.4-1.6-.6-2.4.6-.5 1.2-1.1 1.8-1.6.3-.3 1-.7.8-1.1"/>
    <path id="Path_9" class="st1" d="M32-12c-.1-.5-.9-.4-1.3-.5l-2.4-.3c-.3-.7-.7-1.3-1-2-.2-.4-.3-1.2-.9-1.1s-.7.8-.9 1.2c-.3.7-.6 1.3-1 2l-2.3.4c-.4.1-1.1 0-1.2.5-.1.4.6.8.8 1l1.6 1.4c-.2.7-.3 1.7-.5 2.4-.1.3-.4 1.1 0 1.3.4.3 1-.3 1.3-.5.7-.5 1.4-.9 2.2-1.2.7.4 1.4.9 2.1 1.2.3.2 1 .7 1.4.4.3-.3 0-.9-.1-1.2-.2-.7-.4-1.6-.6-2.4.6-.5 1.2-1.1 1.8-1.6.5-.2 1.2-.6 1-1"/>
    <path id="Path_10" class="st1" d="M45.8-12c-.1-.5-.9-.4-1.3-.5l-2.4-.3c-.3-.7-.7-1.3-1-2-.2-.4-.3-1.2-.9-1.1s-.7.8-.9 1.2c-.3.7-.6 1.3-1 2l-2.3.4c-.4.1-1.1 0-1.2.5-.1.4.6.8.8 1l1.6 1.4c-.2.7-.3 1.7-.5 2.4-.1.3-.4 1.1 0 1.3.4.3 1-.3 1.3-.5.7-.5 1.4-.9 2.2-1.2.7.4 1.4.9 2.1 1.2.3.2 1 .7 1.4.4.3-.3 0-.9-.1-1.2-.2-.7-.4-1.6-.6-2.4.6-.5 1.2-1.1 1.8-1.6.5-.2 1.1-.6 1-1"/>
    <path id="Path_11" class="st0" d="M62.4-8.5v-.2c0-2.5-1.5-4-3.6-4-.9 0-1.8.4-2.5 1s-1 1.5-1 2.4c0 .9.3 1.8 1 2.5.6.7 1.6 1.1 2.5 1.1 1.4.1 2.7-.8 3.2-2.1h-2.2c-.3.3-.6.4-1 .4-.7.1-1.4-.4-1.5-1.1h5.1zm-2-1.4h-3.1c.2-.7.8-1.1 1.5-1.1.8 0 1.4.4 1.6 1.1"/>
    <path id="Path_12" class="st0" d="M69.8-8.5v-.2c0-2.5-1.5-4-3.6-4-.9 0-1.8.4-2.5 1s-1 1.5-1 2.4c0 .9.3 1.8 1 2.5.6.7 1.6 1.1 2.5 1.1 1.4.1 2.7-.8 3.2-2.1h-2.2c-.3.3-.6.4-1 .4-.7.1-1.4-.4-1.5-1.1h5.1zm-1.9-1.4h-3.1c.2-.7.8-1.1 1.5-1.1s1.4.4 1.6 1.1"/>
    <path id="Path_13" class="st0" d="M52.6-11.1v5.2h1.9v-5.2h.8v-1.5h-.8v-.2c0-.6.1-.8.7-.8v-1.3h-.3c-1.6 0-2.4.6-2.4 2.1v.2h-.7v1.5h.8z"/>
    <path id="Path_14" class="st0" d="M70.6-11.1v5.2h1.9v-5.2h.8v-1.5h-.8v-.2c0-.6.1-.8.7-.8v-1.3h-.3c-1.6 0-2.4.6-2.4 2.1v.2h-.7v1.5h.8z"/>
    <path id="Path_15" class="st0" d="M80.3-9.3c0-1.9-1.6-3.5-3.6-3.5-.9 0-1.8.4-2.4 1-.7.6-1 1.5-1 2.4 0 .9.3 1.8 1 2.5.6.7 1.6 1.1 2.5 1.1 1 0 1.9-.4 2.5-1 .7-.6 1.1-1.5 1-2.5m-1.9.1c0 .9-.8 1.5-1.7 1.5s-1.5-.8-1.5-1.7c0-.8.7-1.5 1.6-1.5.9 0 1.6.8 1.6 1.7"/>
    <path id="Path_16" class="st0" d="M83.3-10.4c-.9-.1-1.7-.8-1.8-1.8h4.1c.1-1.4-.9-2.6-2.3-2.7-1.4-.1-2.6.9-2.7 2.3v.2c0 1.4 1.1 2.5 2.5 2.6 1.1 0 2-.7 2.3-1.7H85c-.3.7-1 1.1-1.7 1.1.1 0 .1 0 0 0"/>
    <path id="Path_17" class="st0" d="M88.6-10.4c.9-.1 1.7-.8 1.8-1.8h-4.1c-.1-1.4.9-2.6 2.3-2.7 1.4-.1 2.6.9 2.7 2.3v.2c0 1.4-1.1 2.5-2.5 2.6-1.1 0-2-.7-2.3-1.7h.4c.3.7 1 1.1 1.7 1.1-.1 0 0 0 0 0"/>
  </g>
  <path class="st0" d="M39 16c-.7 0-1.2.3-1.5.7-.3-.5-.8-.7-1.4-.7-.7 0-1.1.3-1.4.7v-.5h-1.3v5.1h1.3v-2.9c0-.8.4-1.2 1-1.2s.9.4.9 1v3.1h1.3v-2.9c0-.8.4-1.2 1-1.2s.9.4.9 1v3.1h1.3v-3.2c-.2-1.3-.9-2.1-2.1-2.1m-8.2.1v2.8c0 .9-.5 1.3-1.1 1.3-.6 0-1-.4-1-1.1v-3h-1.3v3.2c0 1.4.9 2.1 1.9 2.1.7 0 1.2-.3 1.5-.7v.6h1.3v-5.1h-1.3zm-6.5-.1c-.7 0-1.2.3-1.5.7v-.6h-1.3v5.1h1.3v-2.8c0-.9.5-1.3 1.1-1.3.6 0 1 .4 1 1.1v3h1.3V18c.1-1.3-.8-2-1.9-2m-5.4 5.2h1.3v-5.1h-1.3v5.1zm.7-5.7c.5 0 .8-.4.8-.8s-.4-.8-.8-.8-.8.4-.8.8.4.8.8.8M18 17.4v-1.3h-1.2v-1.4l-1.3.4v1h-.9v1.3h.9v2.1c0 1.4.6 1.9 2.5 1.7V20c-.8 0-1.2 0-1.2-.5v-2.1H18zm-6.9 2.7c-.8 0-1.4-.6-1.4-1.5s.6-1.5 1.4-1.5c.8 0 1.4.6 1.4 1.5s-.6 1.5-1.4 1.5m1.4-4v.6c-.4-.5-.9-.8-1.7-.8-1.4 0-2.5 1.2-2.5 2.7 0 1.5 1.1 2.7 2.5 2.7.7 0 1.3-.3 1.7-.8v.6h1.3V16h-1.3zm-6.4 5.1h1.3v-7.5H6.1v7.5zm-3.3-3.7H1.5v-2.2h1.3c.6 0 1 .5 1 1.1 0 .7-.4 1.1-1 1.1m0-3.5H.1v7.2h1.4v-2.4h1.3c1.4 0 2.5-1.1 2.5-2.4 0-1.3-1.1-2.4-2.5-2.4"/>
  <path fill="none" d="M401-25.4H-54.4V98.2"/>
</svg>